<?xml version="1.0" encoding="utf-8"?>
<!-- Generator: Adobe Illustrator 16.0.0, SVG Export Plug-In . SVG Version: 6.00 Build 0)  -->
<!DOCTYPE svg PUBLIC "-//W3C//DTD SVG 1.0//EN" "http://www.w3.org/TR/2001/REC-SVG-20010904/DTD/svg10.dtd">
<svg version="1.0" id="Layer_1" xmlns="http://www.w3.org/2000/svg" xmlns:xlink="http://www.w3.org/1999/xlink" x="0px" y="0px"
	 width="100px" height="100px" viewBox="0 0 100 100" enable-background="new 0 0 100 100" xml:space="preserve">
<path d="M50,36.667c-3.538,0-6.907,0.703-10,1.956V26.667c0-5.521,4.479-10,10-10c5.524,0,10,4.479,10,10V30h6.667v-3.333
	C66.667,17.461,59.206,10,50,10s-16.667,7.461-16.667,16.667v15.869c-6.09,4.886-10,12.379-10,20.797C23.333,78.06,35.273,90,50,90
	s26.667-11.94,26.667-26.667S64.727,36.667,50,36.667z M53.333,65.742v7.591h-6.666v-7.591c-1.986-1.152-3.334-3.281-3.334-5.742
	c0-3.679,2.985-6.667,6.667-6.667s6.667,2.988,6.667,6.667C56.667,62.461,55.319,64.59,53.333,65.742z"/>
</svg>
